# xmcd
#
# Track frame offsets: 
#        150
#        15277
#        38382
#        56030
#        75148
#        91096
#        108889
#        127747
#        152839
#        180306
#        197190
#        215839
#        237171
#        254956
#
# Disc length: 3648 seconds
#
# Revision: 0
# Processed by: cddbd v1.5.2PL0 Copyright (c) Steve Scherf et al.
# Submitted via: ExactAudioCopy v1.1
#
DISCID=a50e3e0e
DTITLE=Joel Fish and Jon Amor - Live At The Farm
DYEAR=2015
DGENRE=Blues
TTITLE0=Dead Man's Chest
TTITLE1=In The Devil's Back Yard
TTITLE2=Chocolate Cake
TTITLE3=You Can Bring Me Flowers
TTITLE4=Force of Habit
TTITLE5=Can't Find My Way Home
TTITLE6=Stitch In Your Party Dress
TTITLE7=Even After That
TTITLE8=Cut Through The Graveyard
TTITLE9=The Way It Goes... Sometimes
TTITLE10=Rooster Blues
TTITLE11=Stop Breaking Down
TTITLE12=Lovin' Cup
TTITLE13=Werewolves Of London
EXTD=
EXTT0=
EXTT1=
EXTT2=
EXTT3=
EXTT4=
EXTT5=
EXTT6=
EXTT7=
EXTT8=
EXTT9=
EXTT10=
EXTT11=
EXTT12=
EXTT13=
PLAYORDER=
